<?xml version="1.0" standalone="no"?>
<!DOCTYPE svg PUBLIC "-//W3C//DTD SVG 20010904//EN"
 "http://www.w3.org/TR/2001/REC-SVG-20010904/DTD/svg10.dtd">
<svg version="1.0" xmlns="http://www.w3.org/2000/svg"
 width="400.000000pt" height="400.000000pt" viewBox="0 0 400.000000 400.000000"
 preserveAspectRatio="xMidYMid meet">

<g transform="translate(0.000000,400.000000) scale(0.100000,-0.100000)"
fill="#000000" stroke="none">
<path d="M3198 3980 c-16 -25 -30 -26 -21 -2 8 23 -1 14 -31 -31 -34 -50 -37
-88 -9 -102 13 -7 21 -14 18 -17 -3 -3 1 -10 8 -17 18 -14 47 -4 47 16 0 10 6
13 16 9 14 -5 15 -4 5 8 -14 17 -1 28 18 17 11 -7 8 -16 -10 -42 -13 -19 -30
-38 -36 -42 -7 -4 -13 -17 -13 -27 0 -11 -4 -20 -10 -20 -5 0 -10 -12 -10 -27
0 -16 -4 -35 -10 -43 -13 -21 5 -38 35 -32 18 3 25 0 25 -12 0 -9 -4 -17 -10
-17 -5 -1 -16 -2 -22 -3 -7 0 -14 -14 -16 -29 -2 -19 -8 -27 -17 -23 -7 2 -19
-1 -25 -9 -6 -8 -18 -11 -25 -9 -20 8 -41 -36 -24 -48 11 -7 11 -11 2 -15 -24
-9 -14 -30 14 -29 15 1 28 -5 31 -14 4 -12 3 -13 -10 -3 -8 7 -18 9 -22 5 -4
-4 -11 -7 -15 -7 -4 0 -15 -8 -25 -18 -26 -25 -14 -45 23 -41 31 4 44 -17 21
-31 -11 -7 -14 -45 -3 -45 3 0 14 7 22 14 9 8 41 18 71 21 33 4 60 12 67 22 7
9 16 14 19 10 9 -9 -4 -39 -14 -33 -4 2 -8 -12 -8 -33 1 -38 1 -38 41 -38 22
0 32 2 23 5 -22 4 -23 16 -3 32 9 7 25 10 42 5 21 -5 24 -4 15 7 -9 11 -7 14
9 15 10 1 20 -4 20 -10 1 -7 2 -19 3 -27 2 -30 71 -11 79 22 3 10 9 18 14 16
4 -1 18 1 31 6 18 6 22 15 22 49 0 31 3 38 10 27 6 -10 10 -11 10 -2 0 6 6 12
14 12 7 0 19 7 26 15 7 8 16 15 21 15 12 0 11 -37 -1 -45 -5 -3 -7 -12 -3 -21
4 -12 1 -13 -22 -4 -30 11 -48 4 -26 -9 9 -6 11 -18 7 -35 -5 -20 -3 -24 9
-20 8 4 15 1 15 -5 0 -6 -11 -11 -24 -11 -14 0 -36 -11 -50 -24 -24 -22 -25
-24 -8 -38 9 -8 25 -18 35 -21 9 -4 17 -16 17 -27 0 -15 -5 -20 -17 -18 -20 4
-42 -30 -50 -75 -3 -22 1 -29 21 -37 14 -5 26 -14 26 -20 0 -5 5 -10 10 -10 6
0 10 8 10 18 0 9 4 13 8 7 8 -12 68 -13 79 -1 4 4 9 12 9 17 1 5 2 14 3 19 1
10 34 14 43 5 8 -9 -54 -70 -84 -83 -19 -7 -26 -16 -22 -27 4 -8 -1 -17 -10
-21 -19 -7 -22 -26 -3 -23 21 4 47 -12 47 -28 0 -14 3 -13 24 0 17 12 26 13
35 4 8 -8 11 -6 11 7 0 13 5 17 19 13 10 -2 25 -1 32 4 7 4 20 4 29 -1 12 -6
21 -3 30 11 18 24 26 24 33 -2 3 -12 10 -18 17 -14 7 4 8 11 1 18 -6 8 -5 19
5 31 14 19 14 19 14 -2 0 -18 5 -20 32 -17 18 2 34 9 36 15 2 6 10 17 18 24
16 17 19 61 4 51 -6 -4 -17 -1 -25 5 -12 10 -16 9 -21 -3 -6 -16 -44 -20 -44
-4 0 4 -5 5 -11 2 -6 -4 -8 -9 -5 -13 9 -9 -37 -28 -74 -30 -19 -2 -36 -7 -38
-12 -6 -18 -22 -11 -22 9 0 25 17 35 52 33 33 -3 35 4 7 29 -11 10 -18 23 -14
28 8 14 -1 14 -27 0 -30 -16 -31 -6 -4 24 27 29 49 36 40 14 -8 -23 39 -14 65
11 13 13 30 21 38 18 8 -3 17 -6 19 -6 11 0 2 -39 -11 -44 -25 -9 -17 -26 13
-26 38 0 72 11 72 22 0 6 -7 8 -15 4 -19 -7 -19 11 0 31 12 12 13 18 4 29 -8
10 -8 14 0 14 8 0 11 77 10 265 -1 257 -1 266 -20 260 -11 -4 -19 -2 -19 4 0
10 14 15 32 12 4 0 6 58 5 131 -2 103 -5 132 -16 136 -10 3 -12 0 -8 -11 3 -8
0 -18 -8 -21 -9 -3 -12 0 -8 10 3 7 0 14 -7 14 -10 0 -10 3 0 15 11 13 8 15
-14 15 -16 0 -26 -5 -26 -15 0 -8 4 -15 10 -15 5 0 -2 -11 -16 -25 -21 -21
-28 -23 -49 -13 -34 15 -31 37 5 45 77 15 12 23 -185 23 -213 0 -220 -1 -217
-31 1 -4 -8 -9 -19 -12 -18 -5 -20 -2 -15 18 l6 23 -110 1 c-100 1 -111 -1
-122 -19z m89 -36 c-3 -3 -12 -4 -19 -1 -8 3 -5 6 6 6 11 1 17 -2 13 -5z m524
-13 c14 -2 0 -46 -19 -59 -19 -12 -20 -12 -15 7 6 24 -12 29 -20 6 -6 -14 -87
-58 -94 -51 -7 6 49 46 64 46 9 0 13 6 9 15 -3 8 -1 15 4 15 6 0 10 7 10 15 0
12 7 14 28 11 15 -2 30 -5 33 -5z m-526 -12 c-4 -6 2 -17 14 -25 20 -15 20
-41 0 -28 -5 3 -7 10 -4 15 4 5 -5 9 -18 9 -13 0 -26 3 -30 6 -11 11 5 34 25
34 11 0 16 -4 13 -11z m105 -19 c0 -5 -4 -10 -10 -10 -5 0 -10 5 -10 10 0 6 5
10 10 10 6 0 10 -4 10 -10z m510 -12 c0 -4 -7 -8 -15 -8 -8 0 -15 4 -15 8 0 5
7 9 15 9 8 0 15 -4 15 -9z m-396 -62 c7 -27 46 -41 106 -37 33 1 34 1 16 -13
-18 -14 -17 -15 7 -21 14 -4 31 -4 36 0 7 3 11 -2 11 -14 0 -22 -26 -29 -32
-10 -3 9 -9 9 -25 0 -12 -6 -29 -8 -37 -5 -16 6 -55 -30 -56 -52 0 -6 -11 -17
-25 -24 -26 -14 -33 -30 -14 -30 8 0 7 -5 -1 -15 -11 -13 -15 -13 -22 -3 -6
11 -10 11 -17 0 -4 -8 -12 -13 -17 -13 -19 2 -8 -35 14 -44 28 -12 28 -21 1
-28 -12 -3 -18 -10 -14 -16 3 -7 0 -8 -9 -5 -9 4 -16 1 -16 -6 0 -17 -25 -6
-25 11 0 8 -4 19 -8 25 -4 7 0 17 8 24 8 7 15 23 15 36 0 16 6 24 18 24 23 0
48 80 29 92 -16 11 -55 10 -61 -1 -9 -14 -45 -20 -40 -7 3 7 -3 13 -13 13 -60
-1 -73 3 -73 23 0 11 7 20 15 20 8 0 15 -4 15 -9 0 -13 83 18 98 36 7 10 12
12 12 5 0 -8 16 -12 43 -11 34 1 37 2 17 8 -18 5 -21 9 -11 15 10 7 10 10 1
16 -10 6 -10 11 1 24 21 23 46 19 53 -8z m157 -158 c-17 -15 -39 -28 -49 -28
-10 0 -24 -6 -30 -12 -10 -10 -15 -10 -22 2 -15 23 -12 29 10 23 11 -3 20 -1
20 5 0 6 16 14 36 18 19 4 38 13 41 20 3 8 10 11 16 7 6 -4 -3 -18 -22 -35z
m242 6 c-3 -8 -12 -13 -20 -10 -8 3 -19 6 -24 6 -6 0 -7 5 -4 10 3 6 17 10 30
10 18 0 23 -4 18 -16z m-73 -4 c0 -5 -2 -10 -4 -10 -3 0 -8 5 -11 10 -3 6 -1
10 4 10 6 0 11 -4 11 -10z m-300 -85 c0 -14 5 -25 11 -25 6 0 9 -9 6 -20 -7
-25 19 -29 98 -14 17 3 44 7 60 9 40 4 57 9 73 19 7 4 16 5 20 1 9 -9 -19 -25
-45 -25 -12 0 -28 -8 -35 -17 -15 -20 -58 -47 -58 -37 0 4 8 13 18 20 15 12
14 13 -13 12 -48 -1 -95 -18 -95 -34 0 -8 -8 -14 -17 -14 -27 -1 -51 -23 -68
-64 -15 -35 -28 -45 -39 -28 -4 7 -24 8 -75 3 -12 -1 -12 -4 -3 -13 25 -25 4
-39 -28 -18 -12 7 -9 13 13 30 15 12 33 27 40 33 6 7 22 13 34 15 28 4 98 70
99 94 1 14 -2 16 -13 7 -10 -9 -17 -9 -25 -1 -8 8 -7 13 6 18 14 5 15 9 4 15
-11 7 -11 11 0 17 7 5 12 13 11 18 -3 16 1 24 11 24 6 0 10 -11 10 -25z m-200
0 c-7 -9 -15 -13 -17 -11 -7 7 7 26 19 26 6 0 6 -6 -2 -15z m557 -28 c-7 -21
-32 -13 -35 11 -3 21 -1 22 18 12 12 -6 19 -17 17 -23z m-643 7 c8 -21 8 -24
-5 -24 -5 0 -7 5 -4 10 3 6 1 10 -4 10 -6 0 -11 5 -11 10 0 16 17 12 24 -6z
m141 6 c3 -5 1 -10 -4 -10 -6 0 -11 5 -11 10 0 6 2 10 4 10 3 0 8 -4 11 -10z
m285 -20 c-18 -11 -22 -7 -14 14 5 13 10 14 18 6 8 -8 7 -13 -4 -20z m-377 13
c4 -3 2 -12 -3 -19 -6 -6 -10 -16 -9 -20 1 -5 1 -21 0 -35 -1 -21 -6 -27 -23
-27 -13 0 -38 -3 -55 -6 -18 -3 -33 -3 -33 0 0 10 28 33 33 27 3 -3 20 5 37
17 24 17 31 28 27 46 -4 23 11 33 26 17z m337 -25 c0 -4 -7 -8 -15 -8 -8 0
-15 4 -15 8 0 5 7 9 15 9 8 0 15 -4 15 -9z m301 -21 c-13 -13 -26 -3 -16 12 3
6 11 8 17 5 6 -4 6 -10 -1 -17z m-551 -62 c-7 -8 -16 -15 -21 -15 -5 0 -6 7
-3 15 4 8 13 15 21 15 13 0 13 -3 3 -15z m-121 -7 c-3 -29 2 -36 22 -31 19 5
20 3 11 -14 -15 -28 -35 -42 -55 -39 -25 3 -29 11 -18 37 5 13 12 32 15 42 6
19 28 24 25 5z m421 -8 c0 -5 -7 -10 -15 -10 -8 0 -15 5 -15 10 0 6 7 10 15
10 8 0 15 -4 15 -10z m236 -90 c5 1 10 -4 13 -11 2 -8 -2 -10 -13 -6 -10 4
-20 7 -22 7 -2 0 -4 8 -4 18 0 13 2 14 9 4 4 -8 12 -13 17 -12z m-494 -12 c-7
-7 -12 -8 -12 -2 0 6 3 14 7 17 3 4 9 5 12 2 2 -3 -1 -11 -7 -17z m-92 -28 c0
-5 -4 -10 -10 -10 -5 0 -10 5 -10 10 0 6 5 10 10 10 6 0 10 -4 10 -10z m620
-73 c-14 -8 -27 -12 -30 -10 -7 6 23 23 40 23 8 0 4 -6 -10 -13z m-100 -78 c0
-4 -6 -11 -13 -17 -10 -8 -18 -5 -31 13 -11 14 -26 25 -34 25 -21 0 -3 17 23
22 18 4 54 -25 55 -43z m20 31 c0 -5 -5 -10 -11 -10 -5 0 -7 5 -4 10 3 6 8 10
11 10 2 0 4 -4 4 -10z"/>
<path d="M1527 3243 c-9 -2 -15 -8 -12 -12 2 -5 -5 -8 -17 -7 -26 1 -116 -84
-129 -124 -6 -15 -16 -27 -24 -27 -19 0 -38 60 -33 98 3 16 1 29 -4 29 -15 0
-20 -51 -10 -93 10 -37 9 -40 -4 -23 -25 35 -15 2 12 -38 30 -44 28 -47 -53
-71 -33 -10 -53 -21 -53 -30 0 -8 -4 -15 -10 -15 -5 0 -7 -7 -3 -15 3 -9 2
-15 -3 -14 -19 3 -34 -1 -34 -11 0 -14 43 -12 59 3 11 10 13 9 8 -5 -4 -12 -1
-18 9 -18 22 0 14 -74 -16 -155 -17 -47 -22 -82 -22 -165 0 -58 5 -125 11
-149 14 -50 10 -59 -14 -35 -14 14 -18 15 -25 4 -7 -11 -16 -12 -45 -3 -36 11
-45 11 -96 -2 -15 -4 -29 -2 -33 3 -7 12 -56 3 -56 -10 0 -7 -4 -7 -12 0 -16
12 -96 6 -114 -9 -7 -6 -18 -8 -24 -4 -15 10 -100 -4 -100 -16 0 -5 8 -9 18
-10 13 0 12 -2 -6 -9 -14 -6 -32 -5 -50 1 -15 7 -22 13 -14 16 20 8 14 26 -8
20 -11 -3 -22 -2 -24 2 -3 4 -19 8 -37 9 -18 1 -39 8 -46 14 -9 7 -17 7 -28
-2 -11 -9 -15 -9 -15 -1 0 9 -6 8 -22 -1 -22 -12 -21 -13 22 -19 32 -4 18 -6
-49 -7 -65 -1 -97 -5 -103 -14 -8 -10 -11 -10 -15 0 -8 21 -60 14 -77 -10 -12
-17 -16 -19 -16 -6 0 12 -8 15 -32 14 -17 -1 -34 -8 -36 -14 -5 -17 -22 -15
-22 3 0 8 -4 15 -10 15 -5 0 -7 -7 -3 -16 9 -24 -20 -13 -31 12 -7 15 -18 20
-43 20 -33 -1 -33 -1 -33 -48 0 -35 4 -48 14 -48 8 0 18 5 21 10 11 18 25 0
25 -31 0 -28 -15 -36 -52 -30 -5 0 -8 -12 -8 -27 0 -26 3 -28 30 -24 23 3 30
0 30 -12 0 -22 -34 -38 -48 -24 -9 9 -12 5 -12 -15 0 -27 1 -27 65 -27 48 0
65 4 65 14 0 7 9 25 21 40 11 15 18 33 15 42 -3 9 -2 12 5 9 5 -4 16 -1 25 5
11 10 20 6 44 -21 17 -19 36 -47 42 -62 l13 -28 115 4 c146 5 235 20 224 38
-4 8 -9 7 -14 -1 -14 -23 -19 6 -8 48 7 30 14 40 22 33 6 -5 39 -11 72 -12 49
-2 68 3 105 24 50 29 59 27 59 -12 0 -37 -34 -64 -71 -56 -17 4 -29 2 -29 -3
0 -11 -18 -11 -37 1 -7 5 -13 4 -13 -1 0 -6 -7 -13 -16 -16 -13 -5 -14 -4 -6
7 9 11 5 16 -23 24 -64 20 -37 -36 36 -73 28 -14 49 -27 47 -30 -3 -2 -22 5
-44 15 -41 20 -57 19 -48 -3 3 -8 -4 -16 -15 -19 -15 -3 -21 -13 -21 -31 0
-30 8 -33 26 -8 12 15 13 15 14 -10 0 -18 -6 -29 -20 -33 -14 -4 -20 -15 -20
-36 0 -33 7 -36 26 -11 12 16 13 15 14 -5 0 -13 -8 -24 -20 -28 -17 -5 -20
-14 -18 -56 3 -54 14 -65 24 -21 10 46 12 48 13 10 1 -30 -3 -38 -21 -44 -13
-4 -34 -20 -48 -36 -14 -15 -39 -31 -55 -34 -37 -7 -43 -13 -25 -24 12 -8 12
-12 0 -36 -11 -19 -16 -23 -18 -11 -6 28 -31 27 -61 -4 -18 -18 -32 -25 -36
-19 -5 8 -11 8 -20 0 -7 -6 -20 -8 -29 -4 -19 7 -21 -7 -5 -23 20 -20 -38 -9
-60 11 -15 13 -20 14 -25 4 -3 -7 -4 -3 -2 10 4 23 -17 32 -29 12 -4 -6 -10
-8 -15 -5 -17 10 -22 -17 -6 -34 20 -22 21 -35 1 -27 -8 3 -15 1 -15 -4 0 -6
-10 -10 -21 -10 -16 0 -20 5 -16 20 3 12 1 18 -5 14 -5 -4 -8 -17 -5 -30 6
-31 -7 -39 -27 -18 -15 14 -16 14 -16 0 0 -22 -20 -20 -21 2 0 10 -3 12 -6 5
-2 -7 -12 -13 -20 -13 -9 0 -13 -6 -9 -15 5 -15 -4 -19 -36 -16 -16 2 -18 -9
-18 -113 0 -107 1 -116 19 -116 10 0 24 -6 30 -14 10 -12 8 -13 -8 -9 -13 3
-21 1 -21 -6 0 -7 -4 -9 -10 -6 -6 4 -10 -32 -10 -100 l0 -105 28 6 c15 3 33
8 41 10 9 3 12 -2 8 -16 -4 -15 0 -20 14 -20 11 0 19 7 20 18 1 9 2 22 4 27 1
6 3 15 3 22 2 13 39 28 60 25 6 -2 13 2 13 8 1 5 2 13 3 18 1 4 16 21 34 39
31 30 36 29 33 -9 -1 -10 3 -18 8 -18 6 0 11 7 11 15 0 8 7 15 15 15 8 0 15 6
16 13 0 6 4 2 9 -11 12 -29 -6 -61 -30 -55 -10 3 -21 0 -24 -6 -4 -6 -2 -11 3
-11 6 0 11 -5 11 -11 0 -7 -9 -9 -21 -6 -15 4 -19 2 -15 -8 5 -15 -13 -79 -20
-72 -3 2 0 16 5 30 7 18 6 28 -3 36 -15 13 -67 18 -84 7 -16 -10 -15 -26 2
-26 24 0 26 -29 3 -45 -12 -8 -18 -15 -13 -15 5 0 3 -7 -5 -16 -10 -12 -10
-17 -1 -23 9 -5 7 -13 -8 -26 -11 -10 -23 -15 -26 -12 -10 9 -46 -13 -42 -25
6 -17 58 -19 65 -2 5 13 8 12 24 -2 19 -17 19 -16 15 19 -3 20 -2 37 2 38 43
5 54 5 58 -3 3 -4 -2 -8 -10 -8 -19 0 -36 -30 -36 -64 0 -16 6 -26 15 -26 27
0 15 -18 -15 -22 -17 -3 -30 -1 -30 3 0 5 -7 6 -15 3 -8 -4 -12 -10 -9 -15 3
-5 -2 -9 -11 -9 -8 0 -18 -7 -21 -15 -4 -8 -11 -12 -16 -9 -6 4 -5 10 3 15 10
6 8 9 -8 9 -13 0 -23 5 -23 10 0 6 -9 10 -20 10 -11 0 -20 -4 -20 -10 0 -5 9
-10 20 -10 11 0 20 -7 20 -15 0 -9 -9 -15 -22 -15 -18 -1 -20 -2 -8 -9 29 -16
72 -23 64 -10 -4 7 -3 9 4 5 6 -3 13 -20 17 -36 4 -17 11 -30 15 -30 5 0 6 8
3 17 -5 12 -2 15 9 11 9 -4 20 -2 26 4 6 6 8 0 4 -18 -3 -14 -13 -29 -23 -31
-19 -5 -34 -32 -23 -42 3 -3 10 2 15 12 6 9 21 17 35 17 13 0 32 5 42 11 12 7
25 7 45 0 25 -10 27 -13 16 -33 -9 -19 -9 -21 2 -10 17 16 26 15 33 -4 3 -8 2
-12 -4 -9 -14 9 -12 -9 2 -24 9 -9 2 -8 -19 3 -18 9 -39 16 -48 16 -15 0 -15
2 1 17 12 12 13 18 4 21 -16 6 -29 -16 -31 -53 -1 -22 -3 -24 -6 -9 -5 27 -38
58 -53 49 -5 -3 -7 -11 -4 -17 4 -6 3 -8 -3 -5 -5 4 -16 -5 -23 -18 -7 -14
-17 -25 -22 -25 -5 0 -6 -9 -3 -20 7 -21 -1 -25 -23 -11 -7 4 -12 14 -10 21 2
8 -6 16 -17 18 -11 2 -23 9 -27 16 -5 6 -7 -22 -7 -61 1 -47 6 -73 13 -73 6 0
4 -5 -4 -10 -12 -8 -13 -13 -2 -30 7 -12 8 -20 2 -20 -6 0 -10 -66 -10 -181 0
-141 3 -179 12 -173 9 5 9 2 -1 -9 -12 -16 -4 -17 118 -17 85 0 131 4 131 11
0 5 -6 7 -13 3 -9 -5 -9 -4 0 6 12 13 37 5 29 -9 -3 -4 104 -9 238 -10 l242
-2 12 43 c12 49 54 168 65 184 16 27 81 286 102 409 9 55 27 156 41 225 13 69
24 145 24 169 0 41 21 154 40 215 5 16 7 33 4 37 -3 5 -1 9 5 9 5 0 37 38 70
84 33 46 72 91 86 100 52 34 115 64 192 91 43 15 85 34 94 42 15 12 17 11 23
-12 4 -14 3 -31 0 -37 -15 -24 -22 -93 -11 -117 5 -15 10 -29 9 -33 -1 -5 4
-8 11 -8 7 0 20 -9 30 -20 9 -11 23 -20 31 -20 18 0 27 -23 15 -41 -15 -24
-10 -39 15 -39 14 0 30 -10 40 -25 17 -25 36 -33 36 -15 0 6 8 27 17 48 9 20
17 53 18 72 0 35 1 35 138 105 145 73 232 139 222 167 -4 10 2 22 14 30 11 8
23 26 26 41 4 15 11 30 16 33 5 3 9 13 9 22 0 9 7 30 15 46 8 15 15 39 15 51
0 13 7 26 16 29 8 3 12 2 9 -4 -3 -6 3 -10 15 -10 16 0 20 -5 16 -17 -7 -23
27 -63 53 -63 11 0 23 -4 26 -10 3 -5 -2 -10 -11 -10 -32 0 -1 -18 64 -40 58
-18 66 -18 93 -5 25 14 28 14 23 0 -4 -8 -1 -15 5 -15 6 0 11 -6 11 -13 0 -11
11 -12 46 -7 55 8 107 0 154 -26 38 -20 119 -21 132 0 5 7 8 5 8 -6 0 -12 13
-21 43 -28 136 -36 295 -102 304 -128 3 -7 35 -33 72 -57 36 -24 118 -93 182
-152 64 -59 136 -123 159 -142 23 -18 46 -44 52 -57 9 -19 19 -24 49 -24 48 0
72 -23 64 -60 -5 -22 -2 -30 13 -34 46 -15 143 -88 181 -136 l41 -52 0 725 c0
571 -3 727 -12 731 -10 5 -10 7 0 12 17 8 16 78 -1 71 -8 -3 -20 -1 -28 4 -11
7 -11 9 4 9 20 0 22 13 3 29 -9 8 -56 10 -147 7 -118 -4 -242 -19 -214 -26 26
-6 32 -7 55 -9 14 -2 19 -5 12 -8 -6 -2 -10 -9 -6 -14 3 -5 -2 -9 -10 -9 -9 0
-16 6 -16 13 0 8 -23 12 -80 12 -44 0 -80 1 -80 3 0 2 7 10 15 19 12 12 19 12
30 3 15 -12 35 -6 35 11 0 10 -63 13 -73 2 -4 -3 -30 -7 -57 -8 -27 -1 -53 -5
-57 -8 -10 -11 -43 -8 -43 3 0 6 -6 10 -14 10 -8 0 -16 6 -19 13 -3 10 -9 10
-26 0 -28 -17 -188 -18 -193 -1 -3 8 -33 12 -91 12 -70 0 -87 3 -87 15 0 12
-3 11 -13 -3 -7 -9 -17 -17 -22 -16 -32 7 -75 -2 -75 -14 0 -8 9 -12 25 -11
15 2 25 -2 25 -10 0 -10 -16 -12 -52 -6 -5 0 -8 8 -8 17 0 11 -5 14 -17 9 -10
-4 -70 -9 -133 -12 -143 -7 -146 -5 -153 117 -7 101 -5 90 -17 90 -6 0 -10
-30 -10 -70 0 -70 -7 -83 -30 -55 -18 22 -25 19 -51 -19 -13 -19 -31 -37 -40
-39 -11 -3 -19 -20 -24 -46 -4 -22 -11 -41 -17 -41 -5 0 -7 8 -4 18 26 91 28
130 12 206 -9 43 -16 93 -16 111 0 18 -7 49 -15 68 -8 20 -15 47 -15 59 -1 53
-124 268 -172 301 -13 8 -36 27 -52 41 -16 15 -48 31 -70 37 -75 21 -72 19
-56 29 8 5 26 7 40 3 41 -9 11 12 -45 33 -27 9 -59 24 -70 31 -23 15 -75 17
-75 3 0 -5 -17 -10 -37 -9 -31 0 -34 2 -18 9 30 14 -51 0 -99 -16 -33 -12 -37
-12 -33 1 4 10 1 12 -10 8 -11 -4 -14 -2 -9 5 4 7 6 11 4 11 -2 -1 -11 -3 -21
-6z m111 -308 c46 -5 65 -12 72 -26 6 -10 26 -21 45 -25 28 -5 33 -9 25 -19
-8 -10 -5 -20 14 -38 14 -14 34 -28 45 -32 10 -3 22 -12 25 -20 3 -8 12 -15
20 -15 7 0 16 -8 18 -17 4 -16 -3 -18 -82 -15 -80 4 -89 2 -115 -21 -26 -22
-29 -30 -31 -105 -2 -60 1 -84 12 -93 8 -6 14 -17 14 -24 0 -6 9 -20 21 -31
16 -15 22 -16 29 -5 6 11 19 12 51 6 24 -5 80 -9 124 -10 107 -3 136 -13 159
-57 19 -37 16 -95 -4 -83 -6 3 -10 1 -10 -4 0 -15 -40 -7 -51 10 -5 8 -9 9 -9
3 0 -6 -20 -20 -44 -32 -24 -13 -47 -29 -50 -37 -7 -19 -30 -19 -46 0 -7 8
-21 15 -32 15 -11 0 -28 5 -39 11 -19 10 -19 12 -5 28 14 15 14 20 1 45 -21
41 -115 133 -115 113 0 -17 14 -33 56 -66 15 -12 25 -23 23 -25 -5 -5 -56 18
-81 36 -15 11 -26 10 -62 -3 -25 -9 -50 -12 -57 -8 -18 11 -72 -50 -65 -75 3
-13 -13 -36 -55 -77 -48 -49 -59 -56 -59 -39 0 26 -20 48 -38 42 -6 -2 -12 1
-12 8 0 6 -12 9 -27 8 -27 -3 -28 -2 -31 52 -1 30 1 60 5 66 5 7 49 21 98 32
50 10 97 22 106 26 12 5 18 0 23 -20 l7 -28 14 29 c7 17 22 50 34 75 20 44 24
62 35 146 6 40 5 42 -34 59 -36 16 -47 17 -111 6 -54 -10 -79 -20 -107 -45
-33 -29 -34 -29 -22 -6 7 14 34 44 60 67 49 44 83 104 63 110 -6 2 -9 12 -6
22 4 15 0 18 -20 14 -21 -4 -25 -1 -22 13 2 11 4 22 4 26 3 25 142 64 166 47
6 -4 38 -10 73 -14z m-378 -15 c-8 -5 -17 -7 -19 -4 -3 3 1 9 9 14 8 5 17 7
19 4 3 -3 -1 -9 -9 -14z m12 -82 c-7 -7 -12 -8 -12 -2 0 14 12 26 19 19 2 -3
-1 -11 -7 -17z m2573 -492 c47 1 87 -2 90 -6 5 -9 -104 -32 -116 -24 -5 3 -18
0 -30 -6 -17 -10 -23 -8 -35 7 -13 17 -13 17 -14 -2 -1 -20 -1 -20 -15 -1 -13
17 -12 20 8 31 12 6 23 9 24 6 2 -4 41 -5 88 -5z m-2725 -10 c15 -9 32 -11 45
-6 25 9 47 0 37 -16 -9 -14 -40 -25 -46 -16 -2 4 -27 6 -54 6 -43 -1 -49 1
-44 15 5 15 22 31 32 30 3 0 16 -6 30 -13z m1490 4 c-20 -13 -50 -13 -50 0 0
6 15 10 33 10 24 0 28 -3 17 -10z m-2098 -29 c-5 -3 -12 -13 -15 -21 -5 -13
-6 -13 -6 0 -1 10 -12 15 -36 16 -18 0 -32 -3 -29 -8 6 -10 1 -10 -20 -2 -30
11 -16 24 24 22 22 -1 43 1 46 4 3 3 14 3 25 1 12 -3 16 -9 11 -12z m98 9 c0
-5 -7 -10 -15 -10 -8 0 -15 5 -15 10 0 6 7 10 15 10 8 0 15 -4 15 -10z m303
-20 c31 -34 33 -40 12 -40 -8 0 -14 5 -12 11 1 6 -4 14 -10 16 -7 3 -13 0 -13
-6 0 -20 -18 -12 -23 11 -12 46 9 50 46 8z m2057 20 c0 -5 -4 -10 -10 -10 -5
0 -10 5 -10 10 0 6 5 10 10 10 6 0 10 -4 10 -10z m60 0 c0 -5 -4 -10 -10 -10
-5 0 -10 5 -10 10 0 6 5 10 10 10 6 0 10 -4 10 -10z m-2990 -4 c0 -11 -19 -15
-25 -6 -3 5 1 10 9 10 9 0 16 -2 16 -4z m340 -6 c0 -5 -8 -10 -17 -10 -15 0
-16 2 -3 10 19 12 20 12 20 0z m2110 0 c0 -5 -8 -10 -17 -10 -15 0 -16 2 -3
10 19 12 20 12 20 0z m1224 -5 c4 -11 -2 -15 -20 -15 -14 0 -23 4 -19 10 4 6
11 8 16 5 5 -4 9 -1 9 4 0 16 7 13 14 -4z m-3458 -20 c6 -23 10 -25 63 -24 31
1 89 1 129 0 l72 -1 0 -32 c-1 -29 -2 -31 -13 -16 -8 10 -31 17 -62 19 -41 3
-50 0 -53 -14 -4 -21 -43 -32 -80 -22 -49 14 -62 15 -62 4 0 -6 -8 -1 -19 12
-15 19 -16 26 -5 47 7 13 10 31 7 38 -3 8 0 14 6 14 6 0 13 -11 17 -25z m514
-7 c0 -16 -3 -19 -11 -11 -6 6 -8 16 -5 22 11 17 16 13 16 -11z m-460 8 c0
-11 -19 -15 -25 -6 -3 5 1 10 9 10 9 0 16 -2 16 -4z m784 -34 c-6 -13 -15 -17
-27 -13 -16 6 -16 8 -1 30 20 28 43 13 28 -17z m2686 28 c0 -5 -5 -10 -11 -10
-5 0 -7 5 -4 10 3 6 8 10 11 10 2 0 4 -4 4 -10z m-2770 -10 c0 -5 -5 -10 -11
-10 -5 0 -7 5 -4 10 3 6 8 10 11 10 2 0 4 -4 4 -10z m160 0 c13 -8 12 -10 -3
-10 -15 0 -15 -3 -5 -20 7 -11 21 -20 30 -20 10 0 18 -4 18 -10 0 -5 -4 -10
-10 -10 -5 0 -10 -7 -10 -15 0 -8 -2 -15 -4 -15 -2 0 -11 -3 -20 -6 -10 -4
-16 -1 -16 10 0 8 -9 20 -20 26 -14 8 -20 21 -20 45 0 30 3 35 23 35 12 0 29
-5 37 -10z m1260 -20 c0 -11 -2 -20 -4 -20 -2 0 -6 9 -9 20 -3 11 -1 20 4 20
5 0 9 -9 9 -20z m360 2 c0 -4 -14 -9 -31 -10 -19 -2 -28 2 -24 8 7 12 55 14
55 2z m980 4 c0 -3 -4 -8 -10 -11 -5 -3 -10 -1 -10 4 0 6 5 11 10 11 6 0 10
-2 10 -4z m150 -10 c0 -8 -4 -17 -9 -20 -10 -7 -23 19 -14 28 11 11 23 6 23
-8z m-3720 -6 c0 -5 -2 -10 -4 -10 -3 0 -8 5 -11 10 -3 6 -1 10 4 10 6 0 11
-4 11 -10z m2076 -2 c5 -8 2 -9 -10 -5 -21 8 -38 -31 -30 -72 4 -17 1 -32 -6
-36 -18 -11 -34 11 -24 32 4 10 9 23 9 28 8 48 44 80 61 53z m1208 6 c9 -3 14
-10 11 -15 -7 -10 -35 0 -35 12 0 11 3 11 24 3z m206 -4 c0 -13 -11 -13 -30 0
-12 8 -11 10 8 10 12 0 22 -4 22 -10z m-99 -27 c-8 -15 -10 -15 -11 -2 0 17
10 32 18 25 2 -3 -1 -13 -7 -23z m289 7 c0 -24 -15 -27 -24 -4 -3 8 -2 12 4 9
6 -3 10 -1 10 4 0 6 2 11 5 11 3 0 5 -9 5 -20z m-2943 -6 c-3 -3 -12 -4 -19
-1 -8 3 -5 6 6 6 11 1 17 -2 13 -5z m2413 -17 c8 -3 -7 -6 -35 -6 -48 0 -49 0
-25 14 14 7 29 10 35 6 5 -5 17 -11 25 -14z m-2397 -26 c12 -10 17 -11 17 -2
0 9 10 11 33 6 23 -4 28 -3 17 4 -21 14 -12 18 45 22 46 4 50 2 53 -19 2 -12
8 -20 13 -17 22 14 6 -31 -18 -51 -19 -15 -28 -31 -28 -54 l-1 -33 -137 -2
c-76 -1 -140 2 -143 6 -11 18 7 29 27 16 16 -10 21 -9 29 3 5 8 10 12 10 7 0
-4 13 -1 29 8 20 10 44 13 74 9 29 -4 56 -2 76 7 35 16 38 24 15 46 -17 17
-86 12 -92 -7 -5 -15 -29 -12 -57 6 -19 12 -25 25 -25 50 0 32 1 34 23 22 12
-7 30 -19 40 -27z m-776 23 c-3 -3 -12 -4 -19 -1 -8 3 -5 6 6 6 11 1 17 -2 13
-5z m2150 -16 c-3 -8 -6 -5 -6 6 -1 11 2 17 5 13 3 -3 4 -12 1 -19z m133 -3
c0 -13 -4 -14 -20 -5 -11 6 -20 13 -20 15 0 3 9 5 20 5 11 0 20 -7 20 -15z
m-2420 -5 c0 -5 -5 -10 -11 -10 -5 0 -7 5 -4 10 3 6 8 10 11 10 2 0 4 -4 4
-10z m473 3 c-7 -2 -19 -2 -25 0 -7 3 -2 5 12 5 14 0 19 -2 13 -5z m27 -45 c0
-6 -7 -5 -15 2 -8 7 -15 17 -15 22 0 6 7 5 15 -2 8 -7 15 -17 15 -22z m1980
-5 c0 -7 -7 -13 -15 -13 -16 0 -19 9 -9 35 5 13 8 14 15 3 5 -7 9 -19 9 -25z
m820 27 c0 -5 -2 -10 -4 -10 -3 0 -8 5 -11 10 -3 6 -1 10 4 10 6 0 11 -4 11
-10z m-3212 -17 c-4 -22 -58 -31 -58 -10 0 20 10 27 37 27 18 0 24 -5 21 -17z
m241 8 c2 -1 -2 -8 -9 -16 -7 -8 -16 -12 -21 -9 -5 3 -9 -2 -9 -10 0 -9 -4
-16 -10 -16 -11 0 -14 43 -4 53 6 5 17 5 53 -2z m64 2 c12 -11 -13 -31 -33
-26 -21 5 -25 15 -13 26 8 9 38 9 46 0z m137 -9 c0 -8 -5 -12 -10 -9 -6 4 -8
11 -5 16 9 14 15 11 15 -7z m640 -3 c0 -12 -20 -25 -27 -18 -7 7 6 27 18 27 5
0 9 -4 9 -9z m1376 -2 c7 -12 -15 -31 -28 -23 -4 3 -8 12 -8 20 0 17 26 19 36
3z m154 -4 c0 -10 -11 -15 -35 -15 -24 0 -35 5 -35 15 0 10 11 15 35 15 24 0
35 -5 35 -15z m150 0 c0 -10 -11 -15 -35 -15 -24 0 -35 5 -35 15 0 10 11 15
35 15 24 0 35 -5 35 -15z m160 0 c0 -10 -11 -15 -35 -15 -24 0 -35 5 -35 15 0
10 11 15 35 15 24 0 35 -5 35 -15z m150 -1 c0 -11 -8 -14 -32 -12 -46 4 -49
28 -4 28 26 0 36 -4 36 -16z m-1585 -24 c-3 -5 -12 -10 -20 -10 -8 0 -17 5
-20 10 -4 6 5 10 20 10 15 0 24 -4 20 -10z m-805 -10 c0 -5 -6 -10 -14 -10 -8
0 -18 5 -21 10 -3 6 3 10 14 10 12 0 21 -4 21 -10z m443 -43 c3 -24 9 -51 13
-60 3 -10 1 -17 -5 -17 -6 0 -11 7 -11 15 0 8 -7 15 -15 15 -11 0 -15 11 -15
38 0 66 24 73 33 9z m2294 27 c-3 -3 -12 -4 -19 -1 -8 3 -5 6 6 6 11 1 17 -2
13 -5z m76 -11 c-7 -2 -19 -2 -25 0 -7 3 -2 5 12 5 14 0 19 -2 13 -5z m-275
-80 c-3 -83 1 -77 -68 -85 -23 -3 -25 0 -22 30 3 23 -1 32 -11 32 -18 0 -28
-35 -14 -49 6 -6 7 -14 2 -18 -4 -5 -10 -2 -12 5 -3 6 -9 12 -15 12 -6 0 -7
-7 -4 -16 4 -10 2 -13 -6 -7 -26 15 -45 10 -41 -11 3 -17 -5 -25 -41 -42 -45
-20 -61 -13 -34 14 9 9 9 12 1 12 -7 0 -14 -4 -18 -10 -7 -12 -36 -2 -52 18
-8 9 -19 12 -30 7 -36 -15 -65 -15 -59 1 3 8 4 14 2 14 -3 0 -11 3 -20 6 -11
4 -16 0 -17 -12 0 -11 -3 -14 -6 -6 -2 6 -9 12 -14 12 -13 0 -11 -28 2 -32 9
-3 9 -10 0 -26 -10 -18 -16 -20 -31 -12 -12 7 -21 7 -25 0 -3 -5 0 -10 7 -10
8 0 6 -5 -5 -11 -9 -5 -22 -7 -27 -4 -6 4 -11 -8 -11 -27 -1 -27 -3 -29 -6 -8
-6 29 -20 41 -40 33 -9 -4 -13 -15 -10 -29 2 -15 -1 -24 -8 -24 -8 0 -10 9 -7
25 4 22 1 25 -22 25 -22 0 -26 -4 -26 -30 0 -16 -5 -30 -11 -30 -6 0 -8 9 -4
20 8 25 -11 51 -31 43 -8 -3 -14 -18 -14 -35 0 -17 -4 -27 -10 -23 -5 3 -10
19 -10 36 0 16 -3 29 -7 29 -17 0 -31 -16 -35 -40 -4 -20 -3 181 1 278 l1 22
405 0 405 0 -2 -77z m319 71 c-3 -3 -12 -4 -19 -1 -8 3 -5 6 6 6 11 1 17 -2
13 -5z m-1243 -46 c-3 -4 -21 -8 -40 -8 -27 0 -34 4 -34 19 0 14 5 18 20 14
11 -3 20 0 20 6 0 6 9 3 19 -6 11 -9 18 -20 15 -25z m70 26 c10 -27 7 -34 -19
-34 -20 0 -25 5 -25 25 0 29 34 36 44 9z m1311 6 c14 -7 8 -8 -20 -3 -22 3
-42 7 -44 9 -9 8 45 2 64 -6z m-3015 -25 c0 -8 -4 -16 -9 -19 -5 -3 -8 5 -8
19 0 14 3 22 8 19 5 -3 9 -11 9 -19z m2784 -4 c-4 -20 -2 -30 10 -34 12 -5 16
0 16 23 0 21 5 30 16 30 13 0 14 -3 4 -15 -6 -8 -9 -22 -6 -32 3 -10 1 -25 -4
-33 -7 -12 -10 -12 -10 -1 0 7 -6 11 -15 7 -8 -3 -15 -1 -15 5 0 6 -4 8 -8 5
-4 -2 -8 13 -7 35 0 24 5 39 12 39 8 0 11 -10 7 -29z m-1334 4 c0 -8 -7 -15
-15 -15 -8 0 -15 7 -15 15 0 8 7 15 15 15 8 0 15 -7 15 -15z m90 0 c0 -10 -11
-15 -35 -15 -33 0 -43 8 -28 23 13 14 63 7 63 -8z m1328 -10 c-3 -3 -9 2 -12
12 -6 14 -5 15 5 6 7 -7 10 -15 7 -18z m34 -21 c-2 -18 3 -33 13 -40 14 -11
12 -12 -16 -11 -33 2 -55 27 -24 27 14 0 16 7 13 30 -3 19 -1 29 6 27 6 -2 10
-17 8 -33z m-2759 14 c77 -2 107 -6 107 -15 0 -7 6 -13 14 -13 22 0 30 -19 16
-35 -18 -22 -30 -18 -30 10 0 14 -4 25 -10 25 -17 0 -50 -34 -50 -52 0 -9 -9
-20 -20 -23 -12 -4 -20 -14 -18 -23 1 -9 -1 -29 -5 -45 -4 -15 -3 -36 3 -46 7
-15 6 -20 -8 -23 -15 -4 -18 1 -18 31 1 20 4 41 8 47 5 8 -5 11 -33 10 -22 0
-36 -2 -32 -3 5 -2 7 -21 5 -43 -2 -23 -8 -37 -14 -34 -5 4 -8 15 -5 25 5 19
-16 49 -34 49 -5 0 -14 -10 -19 -22 -6 -15 -9 -17 -9 -7 -1 19 -35 52 -44 42
-4 -3 -7 1 -7 10 0 8 -3 22 -6 31 -4 12 0 16 15 16 12 0 21 -4 21 -10 0 -5 -5
-10 -10 -10 -7 0 -7 -7 1 -21 6 -12 14 -18 18 -13 3 5 12 9 20 9 8 0 16 6 19
14 3 9 -2 11 -18 6 -18 -6 -21 -4 -18 12 2 10 10 17 16 16 7 -2 12 8 11 25 0
15 -3 21 -6 15 -7 -18 -23 -16 -23 2 0 8 6 15 14 15 8 0 18 9 21 20 4 11 10
18 14 16 4 -3 55 -6 114 -8z m2604 -20 c-3 -7 -5 -2 -5 12 0 14 2 19 5 13 2
-7 2 -19 0 -25z m225 -4 c-3 -26 -1 -35 7 -30 6 4 11 20 11 37 0 31 6 35 29
20 12 -8 12 -12 2 -24 -8 -10 -8 -17 -2 -21 6 -4 7 -14 4 -23 -5 -12 -3 -14 7
-8 9 5 11 4 6 -3 -6 -10 -81 -11 -90 -1 -4 4 -9 66 -7 82 1 4 9 7 19 7 15 0
17 -6 14 -36z m-1962 17 c0 -5 -9 -11 -20 -14 -12 -3 -20 0 -20 7 0 6 9 12 20
13 11 1 20 -2 20 -6z m1666 -6 c10 -8 15 -14 9 -14 -5 0 -19 6 -29 14 -11 8
-15 15 -10 15 6 0 19 -7 30 -15z m-1150 -35 c8 0 14 -7 14 -15 0 -10 -11 -15
-35 -15 -28 0 -35 4 -35 20 0 13 5 18 15 14 9 -4 15 0 16 7 0 11 2 11 6 2 2
-7 11 -13 19 -13z m96 1 c23 -20 13 -31 -28 -31 -29 0 -34 3 -34 23 0 18 5 23
22 23 13 -1 30 -7 40 -15z m88 -19 c0 -9 -10 -12 -27 -10 -36 4 -44 35 -11 40
24 3 38 -7 38 -30z m-1740 9 c0 -11 -71 -43 -79 -36 -3 4 2 11 12 16 9 6 23
16 30 23 12 13 37 11 37 -3z m2880 15 c0 -3 -4 -8 -10 -11 -5 -3 -10 -1 -10 4
0 6 5 11 10 11 6 0 10 -2 10 -4z m-2380 -16 c0 -5 -10 -10 -22 -10 -19 0 -20
2 -8 10 19 13 30 13 30 0z m980 -5 c0 -8 -9 -15 -20 -15 -11 0 -20 7 -20 15 0
8 9 15 20 15 11 0 20 -7 20 -15z m230 -50 c17 1 30 -13 30 -33 0 -9 -10 -12
-27 -10 -23 2 -29 9 -31 33 -1 17 1 25 5 20 4 -6 15 -10 23 -10z m940 3 c0 -3
-9 -6 -20 -5 -11 1 -20 5 -20 9 0 3 9 6 20 5 11 -1 20 -5 20 -9z m340 2 c0 -5
-2 -10 -4 -10 -3 0 -8 5 -11 10 -3 6 -1 10 4 10 6 0 11 -4 11 -10z m-3053 -22
c-3 -8 -6 -5 -6 6 -1 11 2 17 5 13 3 -3 4 -12 1 -19z m1703 9 c0 -5 5 -5 10
-2 6 3 10 -3 10 -14 0 -17 -6 -21 -35 -21 -30 0 -35 3 -35 23 0 17 6 22 25 22
14 0 25 -4 25 -8z m860 -7 c0 -5 -2 -10 -4 -10 -3 0 -8 5 -11 10 -3 6 -1 10 4
10 6 0 11 -4 11 -10z m-2268 -22 c-7 -7 -12 -8 -12 -2 0 14 12 26 19 19 2 -3
-1 -11 -7 -17z m1338 7 c0 -10 -11 -15 -35 -15 -24 0 -35 5 -35 15 0 10 11 15
35 15 24 0 35 -5 35 -15z m883 1 c4 -10 1 -13 -8 -9 -8 3 -12 9 -9 14 7 12 11
11 17 -5z m537 -18 c0 -5 -4 -8 -10 -8 -5 0 -10 10 -10 23 0 18 2 19 10 7 5
-8 10 -18 10 -22z m-66 10 c-3 -4 -9 -8 -15 -8 -5 0 -9 4 -9 8 0 5 7 9 15 9 8
0 12 -4 9 -9z m-650 -26 c-1 -7 -2 -21 -2 -33 -1 -11 -7 -17 -13 -14 -6 4 -8
14 -4 22 4 13 3 14 -10 3 -12 -10 -15 -10 -15 2 0 18 21 39 35 35 5 -2 10 -9
9 -15z m-2279 -11 c3 -6 -4 -15 -15 -21 -22 -12 -23 -10 -14 14 7 18 20 21 29
7z m1635 -8 c0 -9 6 -13 15 -9 10 3 15 -1 15 -13 0 -25 -31 -21 -41 5 -7 17
-8 18 -8 1 -1 -23 -21 -12 -21 11 0 11 8 18 20 19 12 1 20 -4 20 -14z m108
-27 c3 -14 -2 -17 -25 -14 -20 2 -29 9 -31 25 -3 19 0 21 25 14 15 -4 30 -15
31 -25z m-1668 3 c0 -6 -4 -7 -10 -4 -5 3 -10 11 -10 16 0 6 5 7 10 4 6 -3 10
-11 10 -16z m504 -11 c7 -5 4 -8 -6 -8 -12 0 -18 7 -17 23 0 15 2 17 6 7 3 -8
11 -18 17 -22z m1503 0 c-3 -8 -6 -5 -6 6 -1 11 2 17 5 13 3 -3 4 -12 1 -19z
m-1850 -10 c-3 -8 -6 -5 -6 6 -1 11 2 17 5 13 3 -3 4 -12 1 -19z m20 -90 c18
-7 33 -18 33 -25 0 -7 7 -13 16 -13 8 0 13 -4 10 -9 -9 -13 -74 11 -69 26 3 7
-5 17 -18 22 -35 14 -11 13 28 -1z m-288 -35 c-8 -9 -16 -10 -22 -4 -13 13 0
31 19 24 11 -4 12 -8 3 -20z m-170 -19 c-14 -18 -24 -11 -15 11 3 9 11 13 16
10 8 -5 7 -11 -1 -21z m589 2 c3 -16 2 -16 -17 1 -25 21 -26 22 -3 19 9 -2 19
-11 20 -20z m-458 10 c0 -2 -7 -7 -16 -10 -8 -3 -12 -2 -9 4 6 10 25 14 25 6z
m150 -47 c0 -6 -9 -13 -20 -16 -19 -5 -25 -20 -21 -50 1 -7 -3 -13 -9 -13 -7
0 -9 -8 -5 -20 5 -15 2 -20 -12 -20 -10 0 -31 -13 -46 -30 -21 -22 -25 -30
-13 -30 9 0 16 -4 16 -10 0 -5 -25 -10 -55 -10 -30 0 -55 -4 -55 -10 0 -5 5
-10 11 -10 6 0 4 -7 -5 -15 -19 -20 -30 -19 -22 1 5 14 4 15 -8 5 -15 -12 -57
-7 -55 7 4 26 -2 34 -15 22 -8 -6 -12 -19 -9 -28 4 -14 3 -15 -6 -2 -5 8 -13
11 -17 7 -4 -4 -16 0 -26 10 -17 15 -18 15 -18 0 0 -20 -4 -21 -31 -6 -16 8
-23 7 -32 -5 -17 -22 -121 -27 -125 -6 -4 22 37 63 55 56 16 -6 52 30 53 52 0
7 4 11 9 8 5 -4 23 5 39 19 27 23 31 23 37 7 7 -16 8 -15 15 3 7 19 9 18 19
-7 6 -16 21 -30 36 -34 14 -3 25 -10 25 -14 0 -13 43 -20 57 -8 7 6 11 19 8
29 -4 13 1 19 24 24 17 3 44 19 61 35 17 16 45 32 62 35 18 4 38 14 46 21 16
17 32 18 32 3z m27 -11 c-3 -8 -6 -5 -6 6 -1 11 2 17 5 13 3 -3 4 -12 1 -19z
m-248 -29 c1 -4 -10 -9 -23 -11 -17 -4 -23 -1 -19 9 3 7 0 13 -6 13 -6 0 -11
-7 -11 -15 0 -8 -4 -15 -10 -15 -17 0 -11 29 8 39 13 7 23 6 30 -1 9 -9 12 -7
13 8 0 18 1 18 9 -1 5 -11 9 -23 9 -26z m-184 -9 c3 -5 1 -10 -4 -10 -6 0 -11
5 -11 10 0 6 2 10 4 10 3 0 8 -4 11 -10z m243 -15 c-11 -11 -60 -16 -53 -5 3
5 18 10 32 10 15 0 24 -2 21 -5z m-558 -47 c0 -12 -14 -10 -28 4 -19 19 -14
29 8 16 11 -7 20 -16 20 -20z m65 5 c3 -10 -1 -13 -12 -11 -9 2 -18 8 -20 14
-5 16 25 13 32 -3z m44 -4 c11 -19 11 -21 -4 -15 -9 3 -19 6 -21 6 -2 0 -4 7
-4 15 0 21 13 19 29 -6z m681 -3 c-16 -15 -27 -19 -32 -12 -4 6 3 16 15 23 36
20 44 15 17 -11z m-580 4 c11 -7 2 -9 -30 -9 -37 1 -41 2 -20 9 34 11 33 11
50 0z m637 -15 c0 -16 -24 -28 -39 -19 -5 3 1 12 14 19 12 7 23 13 24 14 0 1
1 -6 1 -14z m-637 -14 c0 -5 -12 -7 -27 -5 -39 7 -42 14 -5 14 18 0 32 -4 32
-9z m530 -18 c0 -5 22 -8 49 -8 57 0 65 -5 56 -34 l-6 -20 -39 20 c-22 11 -44
17 -51 14 -6 -4 -15 -1 -20 6 -6 10 -9 7 -9 -12 0 -15 -7 -29 -15 -33 -8 -3
-15 -1 -15 5 0 6 -8 8 -19 4 -15 -5 -18 -1 -14 20 3 13 9 22 14 19 5 -3 9 0 9
6 0 6 4 9 9 5 5 -3 12 -1 16 5 7 12 35 14 35 3z m5 -53 c3 -5 1 -10 -4 -10 -6
0 -11 5 -11 10 0 6 2 10 4 10 3 0 8 -4 11 -10z m-115 -21 c0 -5 -4 -9 -10 -9
-5 0 -10 7 -10 16 0 8 5 12 10 9 6 -3 10 -10 10 -16z m-420 -29 c0 -5 -8 -10
-17 -10 -15 0 -16 2 -3 10 19 12 20 12 20 0z m434 -42 c10 -10 28 -18 41 -18
18 0 23 -4 19 -15 -4 -8 1 -17 10 -21 17 -6 23 -64 7 -64 -5 0 -8 7 -7 16 0 9
-7 18 -17 20 -25 3 -35 14 -14 14 23 0 21 17 -3 30 -15 8 -26 7 -44 -6 -14 -8
-30 -13 -36 -9 -5 3 -10 1 -10 -6 0 -8 -4 -8 -15 1 -8 7 -15 10 -15 6 0 -3 0
-9 0 -13 0 -5 5 -9 10 -9 6 -1 15 -2 21 -3 22 -2 -1 -17 -30 -19 -29 -2 -31 0
-25 22 4 17 1 27 -11 34 -12 6 -14 11 -6 16 16 11 13 24 -6 28 -14 3 -11 7 12
19 35 17 89 6 119 -23z m-519 2 c-3 -5 -26 -24 -51 -41 -43 -29 -45 -30 -33
-8 7 13 12 27 11 31 -1 4 6 4 15 1 12 -5 14 -3 8 7 -5 9 -4 11 3 6 7 -4 20 -2
29 3 23 13 26 13 18 1z m39 -5 c-4 -8 -8 -15 -10 -15 -2 0 -4 7 -4 15 0 8 4
15 10 15 5 0 7 -7 4 -15z m126 -51 c0 -3 -5 -2 -10 1 -6 4 -17 1 -25 -5 -8 -7
-15 -9 -16 -4 0 5 -2 17 -4 26 -3 16 -1 16 26 3 16 -9 29 -18 29 -21z m-136
-5 c-3 -5 0 -9 7 -9 9 0 10 -3 3 -10 -16 -16 -43 -2 -37 20 3 11 11 16 19 13
8 -3 11 -9 8 -14z m336 -14 c-16 -19 -26 -19 -33 -1 -4 10 0 12 14 9 11 -3 19
0 19 8 0 7 3 9 6 6 4 -4 1 -13 -6 -22z m-227 -42 c-5 -13 -33 -26 -33 -15 0 4
3 17 6 29 5 17 9 19 19 10 7 -7 10 -17 8 -24z m60 -24 c-7 -7 -10 1 -10 23 -1
31 0 32 10 10 7 -15 7 -26 0 -33z m-373 15 c-14 -16 -50 -38 -50 -30 0 9 43
46 53 46 5 0 4 -7 -3 -16z m640 -14 c0 -5 -4 -10 -10 -10 -5 0 -10 5 -10 10 0
6 5 10 10 10 6 0 10 -4 10 -10z m-174 -13 c26 10 15 -6 -15 -22 -35 -18 -54
-2 -25 20 11 7 20 10 22 5 2 -5 10 -6 18 -3z m49 3 c3 -5 -1 -10 -10 -10 -9 0
-13 5 -10 10 3 6 8 10 10 10 2 0 7 -4 10 -10z m285 -10 c-8 -6 -24 -9 -35 -9
l-20 1 20 5 c11 3 24 9 29 14 5 5 12 6 15 3 3 -3 -1 -9 -9 -14z m-457 -10 c-3
-11 -9 -20 -14 -20 -10 0 -12 24 -2 33 13 13 21 7 16 -13z m-46 -12 c-3 -8 -6
-5 -6 6 -1 11 2 17 5 13 3 -3 4 -12 1 -19z m-137 -78 c0 -5 -4 -10 -10 -10 -5
0 -10 5 -10 10 0 6 5 10 10 10 6 0 10 -4 10 -10z m30 -82 c0 -5 -4 -8 -10 -8
-5 0 -10 10 -10 23 0 18 2 19 10 7 5 -8 10 -18 10 -22z m87 1 c-7 -12 -15 -15
-23 -9 -6 6 -14 7 -17 3 -4 -3 -7 1 -7 10 0 18 17 26 42 19 14 -3 15 -7 5 -23z
m174 4 c12 -16 12 -17 -2 -6 -9 7 -19 10 -22 6 -4 -3 -7 -1 -7 5 0 17 16 15
31 -5z m29 -98 c0 -8 -4 -15 -10 -15 -5 0 -10 7 -10 15 0 8 5 15 10 15 6 0 10
-7 10 -15z m-75 -14 c3 -5 1 -12 -5 -16 -5 -3 -10 1 -10 9 0 18 6 21 15 7z
m-320 -91 c-3 -5 -10 -10 -16 -10 -5 0 -9 5 -9 10 0 6 7 10 16 10 8 0 12 -4 9
-10z m215 -125 c0 -9 9 -15 25 -15 27 0 32 -9 14 -27 -15 -15 -3 -32 28 -44
13 -5 21 -14 18 -19 -4 -6 -10 -8 -15 -5 -5 3 -12 0 -15 -6 -4 -6 -18 -8 -32
-4 -20 5 -24 3 -20 -9 8 -19 -28 -23 -39 -4 -5 7 -2 9 8 5 12 -4 14 -1 11 14
-3 10 -10 19 -15 19 -5 0 -7 -3 -4 -8 2 -4 -14 -6 -37 -3 -31 2 -44 -1 -54
-15 -10 -14 -13 -15 -13 -3 0 8 6 21 12 27 10 10 10 17 0 33 -19 31 -6 36 28
11 43 -32 57 -28 51 17 -2 11 0 11 12 0 11 -10 12 -18 5 -27 -6 -7 -8 -16 -4
-19 4 -4 11 -1 15 6 10 16 31 6 31 -15 0 -8 4 -14 10 -14 6 0 5 10 -2 25 -6
14 -15 25 -20 25 -4 0 -8 9 -8 20 0 12 -7 20 -16 20 -14 0 -14 3 -4 15 7 8 16
15 21 15 5 0 9 -7 9 -15z m-230 -51 c0 -8 -5 -12 -10 -9 -6 4 -8 11 -5 16 9
14 15 11 15 -7z m43 -14 c-3 -11 -9 -17 -14 -15 -10 7 -1 35 11 35 5 0 6 -9 3
-20z m252 2 c-3 -3 -11 0 -18 7 -9 10 -8 11 6 5 10 -3 15 -9 12 -12z m117 -15
c-2 -12 4 -21 17 -24 12 -3 21 -9 21 -14 0 -15 -20 -10 -38 8 -16 16 -17 15
-20 -5 -4 -23 -18 -30 -24 -10 -2 6 -2 24 0 40 4 23 9 28 26 26 14 -2 20 -9
18 -21z m-66 -24 c-10 -10 -19 5 -10 18 6 11 8 11 12 0 2 -7 1 -15 -2 -18z
m-305 -36 c-10 -9 -11 -8 -5 6 3 10 9 15 12 12 3 -3 0 -11 -7 -18z m113 14 c7
-10 -19 -34 -40 -37 -10 -2 -10 3 3 22 16 25 28 30 37 15z m76 -38 c34 -4 69
-27 58 -38 -3 -3 -13 1 -22 10 -15 15 -16 15 -16 -1 0 -10 -3 -14 -7 -11 -3 4
-13 -2 -20 -13 -17 -24 -33 -18 -26 10 4 14 -2 23 -21 31 -27 13 -25 35 3 24
9 -4 32 -9 51 -12z m275 7 c-27 -12 -35 -12 -35 0 0 6 12 10 28 9 24 0 25 -1
7 -9z m-91 -12 c20 -9 23 -14 15 -25 -17 -20 -35 -16 -47 12 -13 28 -6 31 32
13z m-294 -24 c0 -8 -4 -12 -10 -9 -5 3 -10 10 -10 16 0 5 5 9 10 9 6 0 10 -7
10 -16z m-190 -4 c-19 -13 -30 -13 -30 0 0 6 10 10 23 10 18 0 19 -2 7 -10z
m244 -5 c-4 -8 -10 -12 -15 -9 -11 6 -2 24 11 24 5 0 7 -7 4 -15z m90 -31 c9
-24 7 -27 -9 -10 -17 17 -19 26 -6 26 5 0 12 -7 15 -16z m-304 -29 c0 -5 -5
-3 -10 5 -5 8 -10 20 -10 25 0 6 5 3 10 -5 5 -8 10 -19 10 -25z m341 -13 c-9
-3 -9 -8 1 -20 10 -15 10 -15 -7 0 -16 15 -16 19 -5 34 11 12 15 13 19 3 2 -7
-1 -15 -8 -17z m62 -4 c12 -10 15 -23 10 -55 -6 -48 -19 -50 -21 -4 0 16 -6
39 -12 50 -12 24 -2 27 23 9z m-300 -21 c3 -8 -3 -13 -14 -13 -19 0 -24 8 -12
19 10 11 20 8 26 -6z m227 -27 c0 -5 -4 -10 -10 -10 -5 0 -10 5 -10 10 0 6 5
10 10 10 6 0 10 -4 10 -10z m-125 -30 c-3 -5 -1 -10 6 -10 7 0 10 -2 7 -5 -7
-8 -38 5 -38 16 0 5 7 9 16 9 8 0 12 -4 9 -10z m275 -35 c4 -39 0 -55 -15 -55
-12 0 -13 4 -6 18 5 9 7 30 6 46 -2 16 0 25 5 20 4 -5 9 -18 10 -29z m-82 -5
c8 -13 8 -20 1 -20 -5 0 -7 -6 -4 -12 4 -7 -1 -4 -9 6 -17 21 -21 46 -8 46 4
0 13 -9 20 -20z m259 4 c-3 -3 -12 -4 -19 -1 -8 3 -5 6 6 6 11 1 17 -2 13 -5z
m-219 -35 c-3 -8 -7 -3 -11 10 -4 17 -3 21 5 13 5 -5 8 -16 6 -23z m-198 11
c0 -5 -2 -10 -4 -10 -3 0 -8 5 -11 10 -3 6 -1 10 4 10 6 0 11 -4 11 -10z m67
-5 c-3 -7 3 -24 13 -37 18 -22 19 -22 20 -3 0 16 2 17 9 6 12 -19 -9 -43 -26
-29 -7 5 -16 7 -22 4 -5 -4 -12 3 -16 14 -8 26 -25 26 -25 0 0 -11 -4 -20 -10
-20 -5 0 -9 6 -7 13 1 7 -7 11 -23 9 -33 -3 -44 -24 -20 -37 18 -10 20 -13 20
-37 0 -6 9 -3 20 7 14 12 23 15 32 8 19 -15 58 -23 58 -12 0 5 -4 9 -10 9 -5
0 -10 5 -10 11 0 9 4 9 14 0 10 -8 21 -8 45 0 36 13 56 2 45 -24 -8 -23 -28
-22 -20 0 5 15 3 14 -9 -2 -12 -16 -18 -17 -24 -7 -7 11 -10 10 -15 -3 -3 -9
-4 -21 0 -26 3 -5 1 -9 -4 -9 -6 0 -13 7 -16 16 -4 12 -14 14 -36 9 -22 -5
-30 -3 -30 7 0 10 -2 10 -9 -1 -5 -7 -14 -10 -21 -6 -9 5 -10 2 -6 -13 4 -11
2 -23 -4 -27 -6 -3 -10 3 -10 15 0 15 -5 20 -15 17 -11 -5 -12 -1 -4 20 8 23
8 24 -6 13 -13 -10 -15 -9 -15 8 0 21 -36 37 -46 21 -3 -5 -1 -9 5 -9 6 0 8
-7 4 -16 -4 -12 -8 -13 -14 -3 -6 10 -11 10 -23 0 -9 -7 -14 -16 -12 -20 7
-11 -12 -36 -21 -27 -4 5 -2 11 4 13 10 4 10 10 2 25 -10 18 -9 20 5 15 9 -4
16 -3 16 2 0 12 -59 20 -66 9 -3 -4 -23 1 -46 13 l-40 21 22 15 c19 13 26 14
43 4 18 -12 19 -11 14 8 -6 24 8 28 21 6 9 -18 56 -29 87 -21 12 3 25 18 31
33 l10 28 19 -22 c13 -16 23 -19 35 -13 10 5 20 7 23 4 3 -3 16 3 28 15 26 24
44 27 36 6z m93 -61 c0 -4 -9 1 -20 11 -11 10 -20 23 -20 28 0 6 9 1 20 -11
11 -12 20 -24 20 -28z m45 16 c3 -5 2 -10 -4 -10 -5 0 -13 5 -16 10 -3 6 -2
10 4 10 5 0 13 -4 16 -10z m28 -57 c12 1 25 6 29 12 5 6 11 6 19 -2 8 -8 6
-16 -10 -32 -21 -21 -21 -21 -21 -1 0 22 -16 27 -22 8 -3 -9 -9 -8 -22 5 -10
10 -14 22 -9 29 5 10 8 8 11 -4 2 -11 11 -17 25 -15z m171 -2 c3 -5 -3 -11
-14 -14 -13 -3 -20 0 -20 9 0 15 26 19 34 5z m-634 -46 c-7 -9 -15 -13 -19
-10 -3 3 1 10 9 15 21 14 24 12 10 -5z m550 0 c7 -9 8 -15 2 -15 -5 0 -12 7
-16 15 -3 8 -4 15 -2 15 2 0 9 -7 16 -15z"/>
<path d="M1817 2310 c3 -11 10 -23 16 -27 7 -4 8 0 4 11 -4 10 -7 22 -7 27 0
5 -4 9 -9 9 -5 0 -7 -9 -4 -20z"/>
<path d="M2736 2043 c-12 -13 -5 -43 10 -43 8 0 12 5 8 11 -3 6 -1 15 6 19 9
5 8 9 -3 13 -8 3 -18 3 -21 0z"/>
<path d="M2796 2043 c-14 -15 -5 -43 14 -43 13 0 20 7 20 19 0 19 -23 35 -34
24z"/>
<path d="M2863 2043 c-13 -5 -18 -35 -7 -46 12 -12 34 6 34 29 0 24 -4 27 -27
17z"/>
<path d="M2920 2025 c0 -16 6 -25 15 -25 9 0 15 9 15 25 0 16 -6 25 -15 25 -9
0 -15 -9 -15 -25z"/>
<path d="M2993 2043 c-15 -5 -17 -39 -4 -48 13 -7 35 35 24 45 -4 4 -14 5 -20
3z"/>
<path d="M3040 2026 c0 -20 5 -26 21 -26 15 0 20 5 17 22 -5 34 -38 37 -38 4z"/>
<path d="M3107 2043 c-15 -15 -7 -43 13 -43 15 0 20 7 20 25 0 24 -18 34 -33
18z"/>
<path d="M3164 2036 c-7 -19 3 -36 22 -36 10 0 14 8 12 22 -4 26 -26 36 -34
14z"/>
<path d="M3230 2025 c0 -20 4 -26 18 -23 9 2 17 12 17 23 0 11 -8 21 -17 23
-14 3 -18 -3 -18 -23z"/>
<path d="M3297 2044 c-16 -16 -7 -44 14 -44 15 0 20 5 17 22 -3 22 -19 33 -31
22z"/>
<path d="M2550 2030 c0 -5 7 -10 15 -10 8 0 15 5 15 10 0 6 -7 10 -15 10 -8 0
-15 -4 -15 -10z"/>
<path d="M2611 2018 c1 -18 2 -19 6 -5 2 9 9 15 14 12 5 -4 9 -1 9 4 0 6 -7
11 -15 11 -9 0 -15 -9 -14 -22z"/>
<path d="M2670 2018 c0 -20 1 -21 20 -3 11 10 20 20 20 22 0 1 -9 3 -20 3 -14
0 -20 -7 -20 -22z"/>
<path d="M2550 1935 c0 -16 6 -25 15 -25 9 0 15 9 15 25 0 16 -6 25 -15 25 -9
0 -15 -9 -15 -25z"/>
<path d="M2610 1935 c0 -16 6 -25 15 -25 9 0 15 9 15 25 0 16 -6 25 -15 25 -9
0 -15 -9 -15 -25z"/>
<path d="M2670 1935 c0 -27 21 -30 31 -5 8 19 2 30 -17 30 -8 0 -14 -10 -14
-25z"/>
<path d="M2730 1935 c0 -28 24 -34 34 -9 8 20 -1 34 -20 34 -8 0 -14 -10 -14
-25z"/>
<path d="M2790 1934 c0 -33 33 -30 38 4 3 17 -2 22 -17 22 -16 0 -21 -6 -21
-26z"/>
<path d="M2852 1938 c2 -13 10 -23 18 -23 8 0 16 10 18 23 3 17 -2 22 -18 22
-16 0 -21 -5 -18 -22z"/>
<path d="M2914 1945 c-7 -18 3 -35 22 -35 8 0 14 10 14 25 0 27 -27 35 -36 10z"/>
<path d="M2979 1950 c-5 -28 -3 -33 14 -36 12 -2 17 5 17 22 0 23 -28 36 -31
14z"/>
<path d="M3040 1935 c0 -30 25 -34 33 -6 5 22 0 31 -20 31 -7 0 -13 -11 -13
-25z"/>
<path d="M3162 1938 c4 -31 38 -33 38 -2 0 18 -5 24 -21 24 -15 0 -20 -5 -17
-22z"/>
<path d="M3287 1938 c-8 -29 -4 -32 23 -18 23 12 22 33 -2 38 -9 2 -18 -6 -21
-20z"/>
<path d="M3100 1924 c0 -8 9 -14 21 -14 11 0 19 5 17 12 -6 17 -38 19 -38 2z"/>
<path d="M2545 1870 c-3 -5 -3 -20 1 -34 5 -22 8 -23 20 -11 18 18 18 55 0 55
-8 0 -17 -4 -21 -10z"/>
<path d="M2608 1868 c-7 -19 2 -38 18 -38 8 0 14 10 14 25 0 26 -24 35 -32 13z"/>
<path d="M2670 1855 c0 -30 25 -34 33 -6 5 22 0 31 -20 31 -7 0 -13 -11 -13
-25z"/>
<path d="M2730 1855 c0 -16 6 -25 15 -25 9 0 15 9 15 25 0 16 -6 25 -15 25 -9
0 -15 -9 -15 -25z"/>
<path d="M880 1955 c0 -14 5 -25 10 -25 6 0 10 11 10 25 0 14 -4 25 -10 25 -5
0 -10 -11 -10 -25z"/>
<path d="M950 1955 c0 -14 5 -25 10 -25 6 0 10 11 10 25 0 14 -4 25 -10 25 -5
0 -10 -11 -10 -25z"/>
<path d="M860 1880 c0 -5 9 -10 20 -10 11 0 20 5 20 10 0 6 -9 10 -20 10 -11
0 -20 -4 -20 -10z"/>
<path d="M760 1540 c0 -5 5 -10 10 -10 6 0 10 5 10 10 0 6 -4 10 -10 10 -5 0
-10 -4 -10 -10z"/>
<path d="M555 1360 c3 -5 8 -10 11 -10 2 0 4 5 4 10 0 6 -5 10 -11 10 -5 0 -7
-4 -4 -10z"/>
<path d="M662 1281 c-8 -5 -12 -16 -10 -26 3 -16 6 -15 33 8 26 23 28 26 10
27 -11 0 -26 -4 -33 -9z"/>
<path d="M720 1260 c0 -5 5 -10 10 -10 6 0 10 5 10 10 0 6 -4 10 -10 10 -5 0
-10 -4 -10 -10z"/>
<path d="M250 161 c0 -6 5 -13 10 -16 6 -3 10 1 10 9 0 9 -4 16 -10 16 -5 0
-10 -4 -10 -9z"/>
<path d="M152 3034 c-9 -10 -9 -14 -1 -14 8 0 8 -4 -1 -15 -7 -8 -21 -15 -31
-15 -11 0 -19 -5 -19 -12 0 -6 -3 -8 -7 -5 -3 4 -13 2 -20 -5 -11 -9 -17 -9
-24 3 -5 8 -9 10 -9 4 0 -5 -5 -4 -12 3 -21 21 -28 13 -28 -27 0 -22 6 -44 15
-51 8 -7 15 -18 14 -24 0 -7 -2 -6 -6 2 -13 31 -23 6 -23 -58 0 -43 4 -70 11
-70 5 0 7 5 4 10 -3 6 -1 10 4 10 16 0 13 -20 -4 -26 -22 -9 -18 -27 5 -21 11
3 23 1 26 -4 3 -5 13 -5 25 1 11 6 24 8 29 5 5 -3 11 -1 15 5 9 15 35 12 35
-4 0 -8 -12 -16 -26 -18 l-27 -3 34 -33 c37 -36 48 -37 61 -3 6 19 5 22 -7 17
-18 -7 -20 5 -3 22 21 21 56 13 79 -18 16 -21 26 -27 34 -20 7 5 15 7 18 3 4
-3 7 5 7 19 0 24 -21 53 -31 43 -3 -2 -10 5 -17 15 -10 17 -9 20 12 26 14 3
30 3 36 -1 8 -5 9 -2 2 11 -5 11 -15 31 -22 46 -7 15 -22 30 -33 34 -13 4 -17
12 -13 27 3 12 -2 26 -12 35 -16 13 -16 13 2 8 14 -5 17 -2 12 10 -3 8 -6 18
-6 20 0 2 -7 4 -15 4 -8 0 -19 9 -25 20 -6 11 -17 20 -25 20 -8 0 -12 6 -9 14
8 20 -9 27 -24 10z m18 -195 c0 -6 -9 -13 -20 -16 -16 -4 -18 -9 -9 -24 13
-24 4 -24 -28 1 -14 11 -21 20 -14 20 6 0 11 7 11 15 0 10 10 15 30 15 17 0
30 -5 30 -11z m70 -10 c0 6 8 11 18 11 16 -1 16 -1 0 -11 -10 -5 -18 -17 -18
-24 0 -21 -9 -19 -31 8 -26 31 -23 40 6 21 15 -10 25 -12 25 -5z"/>
<path d="M1112 2435 c0 -16 2 -22 5 -12 2 9 2 23 0 30 -3 6 -5 -1 -5 -18z"/>
<path d="M3608 2373 c7 -3 16 -2 19 1 4 3 -2 6 -13 5 -11 0 -14 -3 -6 -6z"/>
<path d="M168 2353 c7 -3 16 -2 19 1 4 3 -2 6 -13 5 -11 0 -14 -3 -6 -6z"/>
<path d="M185 2140 c-4 -6 -1 -17 5 -25 10 -13 14 -12 27 0 8 8 11 19 8 25 -8
13 -32 13 -40 0z"/>
<path d="M160 2080 c-11 -7 3 -10 48 -10 40 0 62 -4 62 -12 0 -6 3 -8 7 -4 25
25 -83 48 -117 26z"/>
<path d="M111 2019 c-1 -40 -19 -52 -56 -39 -30 11 -37 2 -15 -20 11 -11 20
-30 21 -42 0 -22 1 -22 9 -3 8 19 9 18 9 -4 1 -19 -3 -22 -19 -18 -25 7 -38
-13 -16 -25 20 -11 22 -58 1 -58 -22 0 -18 -28 6 -40 16 -9 25 -8 40 6 21 19
27 43 6 25 -16 -12 -27 -5 -27 18 0 14 2 14 10 1 8 -12 10 -11 10 8 0 30 18
28 30 -3 18 -46 22 -25 17 78 -6 105 -25 191 -26 116z m1 -99 c3 -19 1 -29 -6
-27 -14 4 -21 57 -8 57 5 0 12 -14 14 -30z"/>
<path d="M290 2020 c0 -16 5 -30 10 -30 6 0 10 14 10 30 0 17 -4 30 -10 30 -5
0 -10 -13 -10 -30z"/>
<path d="M330 2019 c0 -17 4 -28 10 -24 6 3 10 17 10 31 0 13 -4 24 -10 24 -5
0 -10 -14 -10 -31z"/>
<path d="M435 2028 c1 -13 -2 -29 -8 -35 -7 -10 4 -13 51 -13 34 0 64 5 68 11
4 7 -2 9 -17 7 -20 -2 -25 2 -27 25 -2 15 -7 27 -11 27 -4 0 -7 -12 -6 -27 0
-28 -29 -42 -31 -15 -1 6 -2 19 -3 27 0 8 -5 15 -9 15 -5 0 -8 -10 -7 -22z"/>
<path d="M190 2016 c0 -14 5 -26 10 -26 6 0 10 9 10 19 0 11 -4 23 -10 26 -6
4 -10 -5 -10 -19z"/>
<path d="M171 2014 c0 -11 3 -14 6 -6 3 7 2 16 -1 19 -3 4 -6 -2 -5 -13z"/>
<path d="M297 1941 c-2 -10 -1 -25 4 -32 6 -10 9 -4 9 19 0 36 -5 42 -13 13z"/>
<path d="M335 1948 c-4 -10 -4 -26 0 -35 8 -17 8 -17 12 0 3 9 3 25 0 35 -4
16 -4 16 -12 0z"/>
<path d="M2 1925 c0 -16 2 -22 5 -12 2 9 2 23 0 30 -3 6 -5 -1 -5 -18z"/>
<path d="M197 1943 c-11 -10 -8 -43 3 -43 6 0 10 11 10 25 0 26 -2 29 -13 18z"/>
<path d="M430 1931 c0 -11 5 -23 10 -26 6 -4 10 5 10 19 0 14 -4 26 -10 26 -5
0 -10 -9 -10 -19z"/>
<path d="M221 1914 c0 -11 3 -14 6 -6 3 7 2 16 -1 19 -3 4 -6 -2 -5 -13z"/>
<path d="M2 1835 c0 -16 2 -22 5 -12 2 9 2 23 0 30 -3 6 -5 -1 -5 -18z"/>
<path d="M300 1840 c0 -11 5 -20 10 -20 6 0 10 9 10 20 0 11 -4 20 -10 20 -5
0 -10 -9 -10 -20z"/>
<path d="M340 1835 c0 -14 5 -25 10 -25 6 0 10 11 10 25 0 14 -4 25 -10 25 -5
0 -10 -11 -10 -25z"/>
<path d="M496 1844 c-10 -25 -7 -34 9 -34 10 0 14 9 13 25 -3 28 -13 33 -22 9z"/>
<path d="M2202 1830 c0 -14 2 -19 5 -12 2 6 2 18 0 25 -3 6 -5 1 -5 -13z"/>
<path d="M181 1824 c0 -11 3 -14 6 -6 3 7 2 16 -1 19 -3 4 -6 -2 -5 -13z"/>
<path d="M591 1781 c-1 -24 2 -32 9 -25 7 7 7 19 1 35 -9 23 -10 22 -10 -10z"/>
<path d="M1 1758 c0 -7 4 -22 9 -33 7 -17 9 -15 9 13 1 17 -3 32 -9 32 -5 0
-10 -6 -9 -12z"/>
<path d="M30 1700 c0 -13 5 -20 13 -17 6 2 12 10 12 17 0 7 -6 15 -12 18 -8 2
-13 -5 -13 -18z"/>
<path d="M257 1713 c-4 -3 -7 -14 -7 -24 0 -9 -5 -19 -12 -21 -7 -3 -8 -9 -3
-18 6 -10 12 -3 22 25 13 38 13 51 0 38z"/>
<path d="M210 1701 c0 -6 4 -13 10 -16 6 -3 7 1 4 9 -7 18 -14 21 -14 7z"/>
<path d="M182 1660 c14 -22 24 -19 15 5 -4 8 -11 15 -17 15 -6 0 -6 -7 2 -20z"/>
<path d="M340 1671 c0 -4 -17 -8 -37 -7 -28 1 -38 -3 -41 -16 -3 -14 3 -16 34
-12 38 5 64 19 64 35 0 5 -4 9 -10 9 -5 0 -10 -4 -10 -9z"/>
<path d="M86 1641 c-16 -18 -17 -24 -7 -34 10 -9 15 -9 18 0 2 7 10 10 18 7 7
-3 16 -1 20 5 3 6 -1 11 -9 11 -8 0 -16 7 -18 16 -3 14 -6 13 -22 -5z"/>
<path d="M10 1610 c-8 -5 -11 -12 -7 -16 4 -4 13 -2 19 4 15 15 7 24 -12 12z"/>
<path d="M20 1510 c0 -5 5 -10 11 -10 5 0 7 5 4 10 -3 6 -8 10 -11 10 -2 0 -4
-4 -4 -10z"/>
<path d="M1845 1410 c-13 -6 -15 -9 -5 -9 8 0 22 4 30 9 18 12 2 12 -25 0z"/>
<path d="M1560 1330 c0 -5 7 -10 15 -10 8 0 15 5 15 10 0 6 -7 10 -15 10 -8 0
-15 -4 -15 -10z"/>
<path d="M1830 1262 c-70 -57 -84 -71 -78 -77 3 -3 12 0 19 7 8 8 31 24 52 37
33 20 64 57 55 66 -2 2 -24 -13 -48 -33z"/>
<path d="M28 966 c-12 -6 -24 -18 -26 -27 -4 -23 95 -23 101 0 8 33 -33 48
-75 27z"/>
<path d="M0 891 c0 -5 7 -15 17 -22 15 -13 15 -12 4 9 -12 23 -21 28 -21 13z"/>
<path d="M23 632 c-13 -2 -23 -8 -23 -13 0 -13 37 -11 45 2 9 14 5 16 -22 11z"/>
<path d="M2455 400 l-150 -6 150 -1 c83 -1 168 2 190 6 l40 9 -40 -1 c-22 -1
-107 -4 -190 -7z"/>
<path d="M3291 381 c-12 -8 -12 -12 -2 -24 7 -9 8 -18 3 -21 -6 -3 -12 4 -16
16 -5 22 -6 22 -20 3 -19 -25 -20 -45 -3 -45 6 -1 -2 -7 -18 -14 -17 -7 -39
-26 -50 -42 -17 -26 -17 -30 -2 -57 10 -16 17 -35 17 -43 0 -9 5 -12 10 -9 6
3 10 -1 10 -9 0 -23 -21 -19 -27 5 -4 14 -8 17 -13 9 -13 -21 -43 35 -36 65 4
14 2 25 -4 25 -5 0 -10 8 -10 18 0 13 -2 14 -9 4 -4 -7 -6 -24 -4 -36 7 -34
-15 -42 -43 -15 -24 22 -24 22 -24 2 0 -12 -5 -23 -12 -25 -8 -3 -5 -16 11
-41 12 -20 18 -37 13 -37 -6 0 -12 6 -15 13 -2 6 -4 -13 -3 -43 l1 -55 -33 3
c-24 2 -33 -2 -30 -10 6 -18 59 -23 69 -6 7 10 9 10 9 1 0 -7 5 -13 10 -13 7
0 8 13 4 36 -4 24 -3 35 3 31 6 -4 13 -20 16 -36 l6 -30 288 -1 288 0 -37 33
c-38 34 -51 61 -24 51 26 -10 27 16 2 47 -27 31 -27 49 0 49 8 0 14 4 14 9 0
4 16 23 35 42 19 19 35 37 35 42 0 14 -70 7 -102 -11 -18 -10 -39 -17 -45 -15
-7 3 -13 1 -13 -4 0 -5 -16 -17 -35 -27 -19 -11 -35 -23 -35 -29 0 -5 -7 -7
-15 -3 -8 3 -15 2 -15 -3 0 -15 -57 -74 -76 -79 -11 -2 -31 -4 -46 -3 -16 0
-28 -5 -28 -12 0 -7 -4 -6 -10 3 -8 13 -10 13 -10 0 0 -12 -3 -11 -17 2 -20
21 -20 74 1 97 9 10 16 23 16 29 0 7 7 12 15 12 8 0 15 9 15 20 0 11 5 20 11
20 6 0 8 8 4 19 -4 12 0 23 10 28 9 5 17 22 18 39 2 22 -3 30 -18 32 -11 1
-26 -2 -34 -7z m-26 -51 c3 -5 1 -10 -4 -10 -6 0 -11 5 -11 10 0 6 2 10 4 10
3 0 8 -4 11 -10z m22 -32 c-3 -8 -6 -5 -6 6 -1 11 2 17 5 13 3 -3 4 -12 1 -19z"/>
<path d="M3360 370 c0 -19 3 -21 12 -12 9 9 9 15 0 24 -9 9 -12 7 -12 -12z"/>
<path d="M3005 210 c-3 -5 -1 -10 4 -10 6 0 11 5 11 10 0 6 -2 10 -4 10 -3 0
-8 -4 -11 -10z"/>
<path d="M2605 174 c-29 -13 -29 -13 -5 -12 14 0 39 3 55 7 30 7 30 7 5 12
-14 3 -39 0 -55 -7z"/>
</g>
</svg>
